<svg xmlns="http://www.w3.org/2000/svg" version="1.1" xmlns:xlink="http://www.w3.org/1999/xlink" xmlns:svgjs="http://svgjs.dev/svgjs" width="1000" height="1000" viewBox="0 0 1000 1000"><rect width="1000" height="1000" fill="#1f0f53"></rect><g transform="matrix(0.7,0,0,0.7,149.57575887190347,402.7661886665703)"><svg viewBox="0 0 396 110" data-background-color="#1f0f53" preserveAspectRatio="xMidYMid meet" height="277" width="1000" xmlns="http://www.w3.org/2000/svg" xmlns:xlink="http://www.w3.org/1999/xlink"><g id="tight-bounds" transform="matrix(1,0,0,1,0.2399992667517381,0.16100694521540504)"><svg viewBox="0 0 395.52 109.67798610956919" height="109.67798610956919" width="395.52"><g><svg viewBox="0 0 530.8890173101009 147.2159139013453" height="109.67798610956919" width="395.52"><g transform="matrix(1,0,0,1,135.36901731010093,17.375751487973908)"><svg viewBox="0 0 395.52 112.46441092539747" height="112.46441092539747" width="395.52"><g><svg viewBox="0 0 395.52 112.46441092539747" height="112.46441092539747" width="395.52"><g><svg viewBox="0 0 395.52 112.46441092539747" height="112.46441092539747" width="395.52"><g transform="matrix(1,0,0,1,0,0)"><svg width="395.52" viewBox="1 -47 245.27999877929688 69.75" height="112.46441092539747" data-palette-color="#ffdb99"><path d="M43.4-32Q43.4-27.75 40.4-24.68 37.4-21.6 31.65-20.25L31.65-20.25Q34.75-19.4 36.35-17.48 37.95-15.55 37.95-13.05L37.95-13.05Q37.95-9.1 35.48-6.2 33-3.3 28.25-1.73 23.5-0.15 16.8-0.15L16.8-0.15Q14.3-0.15 12.8-0.3L12.8-0.3Q12.75 1.1 11.6 1.8 10.45 2.5 8.65 2.5L8.65 2.5Q6.85 2.5 6.18 1.7 5.5 0.9 5.6-0.65L5.6-0.65Q6.05-7.65 7.35-15.33 8.65-23 10.65-30.15L10.65-30.15Q11-31.4 12.05-31.9 13.1-32.4 14.8-32.4L14.8-32.4Q17.85-32.4 17.85-30.7L17.85-30.7Q17.85-30 17.55-29.1L17.55-29.1Q16.25-25.2 14.95-18.53 13.65-11.85 13.1-5.8L13.1-5.8Q15.5-5.6 17-5.6L17-5.6Q24-5.6 27.28-7.63 30.55-9.65 30.55-12.8L30.55-12.8Q30.55-15 28.68-16.5 26.8-18 22.4-18.15L22.4-18.15Q21.4-18.2 21-18.65 20.6-19.1 20.6-20.1L20.6-20.1Q20.6-21.55 21.2-22.45 21.8-23.35 23.4-23.4L23.4-23.4Q26.95-23.5 29.83-24.45 32.7-25.4 34.35-27.13 36-28.85 36-31.15L36-31.15Q36-34.05 33.15-35.73 30.3-37.4 24.4-37.4L24.4-37.4Q19.05-37.4 14.05-36.02 9.05-34.65 5.55-32.55L5.55-32.55Q3.95-31.6 2.85-31.6L2.85-31.6Q1.95-31.6 1.48-32.23 1-32.85 1-33.8L1-33.8Q1-35.05 1.53-35.95 2.05-36.85 4.05-38L4.05-38Q8.25-40.4 13.9-41.75 19.55-43.1 25.45-43.1L25.45-43.1Q34.5-43.1 38.95-40.05 43.4-37 43.4-32L43.4-32ZM64.3-11.15Q64.95-11.15 65.32-10.55 65.7-9.95 65.7-8.9L65.7-8.9Q65.7-6.9 64.75-5.8L64.75-5.8Q62.9-3.55 59.52-1.65 56.15 0.25 52.3 0.25L52.3 0.25Q47.05 0.25 44.15-2.6 41.25-5.45 41.25-10.4L41.25-10.4Q41.25-13.85 42.7-16.82 44.15-19.8 46.72-21.55 49.3-23.3 52.55-23.3L52.55-23.3Q55.45-23.3 57.2-21.58 58.95-19.85 58.95-16.9L58.95-16.9Q58.95-13.45 56.47-10.98 54-8.5 48.1-7.05L48.1-7.05Q49.35-4.75 52.85-4.75L52.85-4.75Q55.1-4.75 57.97-6.33 60.85-7.9 62.95-10.45L62.95-10.45Q63.55-11.15 64.3-11.15L64.3-11.15ZM51.7-18.4Q49.85-18.4 48.57-16.25 47.3-14.1 47.3-11.05L47.3-11.05 47.3-10.95Q50.25-11.65 51.95-13.05 53.65-14.45 53.65-16.3L53.65-16.3Q53.65-17.25 53.12-17.82 52.6-18.4 51.7-18.4L51.7-18.4ZM67.55 0.25Q64.45 0.25 62.6-2 60.75-4.25 60.75-7.9L60.75-7.9Q60.75-11.9 62.6-15.48 64.45-19.05 67.52-21.23 70.59-23.4 74.05-23.4L74.05-23.4Q75.15-23.4 75.52-22.98 75.9-22.55 76.15-21.45L76.15-21.45Q77.2-21.65 78.34-21.65L78.34-21.65Q80.8-21.65 80.8-19.9L80.8-19.9Q80.8-18.85 80.05-14.9L80.05-14.9Q78.9-9.15 78.9-6.9L78.9-6.9Q78.9-6.15 79.27-5.7 79.65-5.25 80.25-5.25L80.25-5.25Q81.2-5.25 82.55-6.48 83.9-7.7 86.2-10.45L86.2-10.45Q86.8-11.15 87.55-11.15L87.55-11.15Q88.2-11.15 88.57-10.55 88.95-9.95 88.95-8.9L88.95-8.9Q88.95-6.9 88-5.8L88-5.8Q85.95-3.25 83.65-1.5 81.34 0.25 79.2 0.25L79.2 0.25Q77.55 0.25 76.17-0.88 74.8-2 74.09-3.95L74.09-3.95Q71.5 0.25 67.55 0.25L67.55 0.25ZM69.34-4.8Q70.45-4.8 71.45-6.1 72.45-7.4 72.9-9.55L72.9-9.55 74.75-18.75Q72.65-18.7 70.87-17.18 69.09-15.65 68.05-13.15 67-10.65 67-7.85L67-7.85Q67-6.3 67.62-5.55 68.25-4.8 69.34-4.8L69.34-4.8ZM89.99 0.25Q87.74 0.25 86.32-1.83 84.89-3.9 84.89-7L84.89-7Q84.89-10.75 85.39-13.88 85.89-17 87.04-20.5L87.04-20.5Q87.54-22 88.44-22.65 89.34-23.3 91.29-23.3L91.29-23.3Q92.39-23.3 92.82-22.95 93.24-22.6 93.24-21.9L93.24-21.9Q93.24-21.5 92.69-19.2L92.69-19.2Q92.19-17.35 91.89-15.85L91.89-15.85Q90.89-10.6 90.89-8.85L90.89-8.85Q90.89-7.8 91.14-7.38 91.39-6.95 91.94-6.95L91.94-6.95Q92.69-6.95 93.82-8.45 94.94-9.95 96.22-13 97.49-16.05 98.69-20.5L98.69-20.5Q99.09-22 99.92-22.65 100.74-23.3 102.39-23.3L102.39-23.3Q103.54-23.3 103.99-23.03 104.44-22.75 104.44-22L104.44-22Q104.44-20.75 103.19-15.15L103.19-15.15Q101.79-8.75 101.79-7.25L101.79-7.25Q101.79-6.3 102.19-5.78 102.59-5.25 103.24-5.25L103.24-5.25Q104.24-5.25 105.62-6.48 106.99-7.7 109.29-10.45L109.29-10.45Q109.89-11.15 110.64-11.15L110.64-11.15Q111.29-11.15 111.67-10.55 112.04-9.95 112.04-8.9L112.04-8.9Q112.04-6.9 111.09-5.8L111.09-5.8Q108.94-3.15 106.47-1.45 103.99 0.25 100.84 0.25L100.84 0.25Q98.44 0.25 97.32-1.6 96.19-3.45 96.19-6.8L96.19-6.8Q95.34-3.4 93.64-1.58 91.94 0.25 89.99 0.25L89.99 0.25ZM130.29-11.15Q130.94-11.15 131.31-10.55 131.69-9.95 131.69-8.9L131.69-8.9Q131.69-6.9 130.74-5.8L130.74-5.8Q128.59-3.15 126.04-1.45 123.49 0.25 120.19 0.25L120.19 0.25Q109.99 0.25 109.99-14.1L109.99-14.1Q109.99-16.3 110.14-18.55L110.14-18.55 108.19-18.55Q106.69-18.55 106.17-19.1 105.64-19.65 105.64-20.85L105.64-20.85Q105.64-23.65 107.89-23.65L107.89-23.65 110.74-23.65Q111.59-29.15 113.34-33.7 115.09-38.25 117.56-40.95 120.04-43.65 122.89-43.65L122.89-43.65Q124.99-43.65 126.19-41.8 127.39-39.95 127.39-37.15L127.39-37.15Q127.39-29.4 120.89-23.65L120.89-23.65 126.49-23.65Q127.29-23.65 127.64-23.3 127.99-22.95 127.99-22L127.99-22Q127.99-18.55 122.34-18.55L122.34-18.55 116.24-18.55Q116.14-16.05 116.14-14.65L116.14-14.65Q116.14-9.45 117.37-7.35 118.59-5.25 121.24-5.25L121.24-5.25Q123.39-5.25 125.04-6.55 126.69-7.85 128.94-10.45L128.94-10.45Q129.54-11.15 130.29-11.15L130.29-11.15ZM121.54-38.85Q120.79-38.85 119.87-36.98 118.94-35.1 118.12-31.78 117.29-28.45 116.74-24.4L116.74-24.4Q119.69-26.95 121.17-30.13 122.64-33.3 122.64-35.9L122.64-35.9Q122.64-38.85 121.54-38.85L121.54-38.85ZM153.24-11.05Q153.89-11.05 154.26-10.43 154.64-9.8 154.64-8.85L154.64-8.85Q154.64-7.7 154.29-7.05 153.94-6.4 153.19-5.9L153.19-5.9 143.59 0.55Q141.69 10.9 138.61 16.82 135.54 22.75 130.79 22.75L130.79 22.75Q128.24 22.75 126.64 21.18 125.04 19.6 125.04 17.05L125.04 17.05Q125.04 14.7 126.11 12.25 127.19 9.8 130.11 6.63 133.04 3.45 138.39-0.65L138.39-0.65 138.54-1.8Q138.89-3.65 139.34-7.1L139.34-7.1Q138.34-3.5 136.54-1.63 134.74 0.25 132.74 0.25L132.74 0.25Q130.49 0.25 129.06-1.83 127.64-3.9 127.64-7L127.64-7Q127.64-10.75 128.14-13.88 128.64-17 129.79-20.5L129.79-20.5Q130.29-22 131.19-22.65 132.09-23.3 134.04-23.3L134.04-23.3Q135.14-23.3 135.56-22.95 135.99-22.6 135.99-21.9L135.99-21.9Q135.99-21.5 135.44-19.2L135.44-19.2Q134.94-17.35 134.64-15.85L134.64-15.85Q134.24-13.8 133.94-11.93 133.64-10.05 133.64-8.85L133.64-8.85Q133.64-6.95 134.69-6.95L134.69-6.95Q135.44-6.95 136.56-8.45 137.69-9.95 138.96-13 140.24-16.05 141.44-20.5L141.44-20.5Q141.84-22 142.66-22.65 143.49-23.3 145.14-23.3L145.14-23.3Q146.29-23.3 146.74-23 147.19-22.7 147.19-22L147.19-22Q147.19-20.75 145.89-13.4L145.89-13.4 144.59-5.35Q148.44-8.25 152.09-10.65L152.09-10.65Q152.74-11.05 153.24-11.05L153.24-11.05ZM131.34 17.9Q132.59 17.9 134.14 15 135.69 12.1 137.24 5.35L137.24 5.35Q133.39 8.6 131.66 11.28 129.94 13.95 129.94 15.95L129.94 15.95Q129.94 16.8 130.26 17.35 130.59 17.9 131.34 17.9L131.34 17.9ZM197.88-11.15Q198.53-11.15 198.91-10.55 199.28-9.95 199.28-8.9L199.28-8.9Q199.28-6.95 198.34-5.8L198.34-5.8Q193.38 0.25 187.78 0.25L187.78 0.25Q182.94 0.25 180.03-3.5 177.13-7.25 177.13-14.25L177.13-14.25Q177.13-15.95 177.28-17.65L177.28-17.65Q173.99-17.05 170.09-16.75L170.09-16.75Q167.49-16.55 166.53-16.5L166.53-16.5Q165.53-11.4 163.74-4L163.74-4Q162.69 0.35 159.74 0.35L159.74 0.35Q156.53 0.35 156.53-2.55L156.53-2.55Q156.53-3.2 156.78-4.35L156.78-4.35Q158.49-11.2 159.49-15.95L159.49-15.95 157.09-15.85Q155.44-15.85 154.69-16.43 153.94-17 153.94-18.3L153.94-18.3Q153.94-19.95 154.88-20.73 155.84-21.5 158.03-21.6L158.03-21.6 160.69-21.7Q161.99-28.75 161.99-32.45L161.99-32.45Q161.99-34.8 161.28-35.65 160.59-36.5 159.44-36.5L159.44-36.5Q155.94-36.5 151.53-30.65L151.53-30.65Q150.88-29.8 150.09-29.8L150.09-29.8Q149.38-29.8 148.88-30.45 148.38-31.1 148.38-32.1L148.38-32.1Q148.38-33.65 149.63-35.4L149.63-35.4Q151.84-38.45 155.19-40.43 158.53-42.4 161.99-42.4L161.99-42.4Q165.24-42.4 167.01-40.18 168.78-37.95 168.78-33.25L168.78-33.25Q168.78-29.1 167.59-22L167.59-22 172.49-22.25Q175.63-22.4 177.88-22.75L177.88-22.75Q178.78-28.25 180.63-33.05 182.49-37.85 185.24-40.85 187.99-43.85 191.38-43.85L191.38-43.85Q193.88-43.85 195.34-41.88 196.78-39.9 196.78-36.7L196.78-36.7Q196.78-24.3 184.13-19.5L184.13-19.5Q183.99-17.5 183.99-15.35L183.99-15.35Q183.99-10.1 185.28-7.9 186.59-5.7 188.94-5.7L188.94-5.7Q190.99-5.7 192.69-6.78 194.38-7.85 196.53-10.45L196.53-10.45Q197.13-11.15 197.88-11.15L197.88-11.15ZM191.13-39.5Q190.03-39.5 188.81-37.5 187.59-35.5 186.49-32.05 185.38-28.6 184.74-24.5L184.74-24.5Q188.74-26.15 190.63-29.2 192.53-32.25 192.53-37.05L192.53-37.05Q192.53-38.2 192.13-38.85 191.74-39.5 191.13-39.5L191.13-39.5ZM200.33 0.25Q198.08 0.25 196.66-1.83 195.23-3.9 195.23-7L195.23-7Q195.23-10.75 195.73-13.88 196.23-17 197.38-20.5L197.38-20.5Q197.88-22 198.78-22.65 199.68-23.3 201.63-23.3L201.63-23.3Q202.73-23.3 203.16-22.95 203.58-22.6 203.58-21.9L203.58-21.9Q203.58-21.5 203.03-19.2L203.03-19.2Q202.53-17.35 202.23-15.85L202.23-15.85Q201.23-10.6 201.23-8.85L201.23-8.85Q201.23-7.8 201.48-7.38 201.73-6.95 202.28-6.95L202.28-6.95Q203.03-6.95 204.16-8.45 205.28-9.95 206.56-13 207.83-16.05 209.03-20.5L209.03-20.5Q209.43-22 210.26-22.65 211.08-23.3 212.73-23.3L212.73-23.3Q213.88-23.3 214.33-23.03 214.78-22.75 214.78-22L214.78-22Q214.78-20.75 213.53-15.15L213.53-15.15Q212.13-8.75 212.13-7.25L212.13-7.25Q212.13-6.3 212.53-5.78 212.93-5.25 213.58-5.25L213.58-5.25Q214.58-5.25 215.96-6.48 217.33-7.7 219.63-10.45L219.63-10.45Q220.23-11.15 220.98-11.15L220.98-11.15Q221.63-11.15 222.01-10.55 222.38-9.95 222.38-8.9L222.38-8.9Q222.38-6.9 221.43-5.8L221.43-5.8Q219.28-3.15 216.81-1.45 214.33 0.25 211.18 0.25L211.18 0.25Q208.78 0.25 207.66-1.6 206.53-3.45 206.53-6.8L206.53-6.8Q205.68-3.4 203.98-1.58 202.28 0.25 200.33 0.25L200.33 0.25ZM244.93-15.35Q245.58-15.35 245.93-14.7 246.28-14.05 246.28-13.05L246.28-13.05Q246.28-11.8 245.93-11.13 245.58-10.45 244.83-10.2L244.83-10.2Q241.83-9.15 238.23-9L238.23-9Q237.23-4.85 234.46-2.3 231.68 0.25 228.33 0.25L228.33 0.25Q223.28 0.25 220.98-3.6 218.68-7.45 218.68-14.75L218.68-14.75Q218.68-21.2 220.28-28.78 221.88-36.35 224.96-41.68 228.03-47 232.28-47L232.28-47Q234.58-47 235.98-45.03 237.38-43.05 237.38-39.9L237.38-39.9Q237.38-35.8 235.83-31.75 234.28-27.7 230.68-23.25L230.68-23.25Q234.03-23 236.13-20.48 238.23-17.95 238.63-14.25L238.63-14.25Q240.98-14.4 244.23-15.25L244.23-15.25Q244.53-15.35 244.93-15.35L244.93-15.35ZM231.13-42.05Q230.13-42.05 228.96-39.08 227.78-36.1 226.78-31 225.78-25.9 225.28-19.85L225.28-19.85Q228.58-25.9 230.56-30.53 232.53-35.15 232.53-38.75L232.53-38.75Q232.53-40.35 232.16-41.2 231.78-42.05 231.13-42.05L231.13-42.05ZM228.53-5.05Q230.08-5.05 231.28-6.35 232.48-7.65 232.88-10.1L232.88-10.1Q231.33-11.15 230.5-12.85 229.68-14.55 229.68-16.45L229.68-16.45Q229.68-17.15 229.88-18.35L229.88-18.35 229.73-18.35Q227.68-18.35 226.31-16.32 224.93-14.3 224.93-10.9L224.93-10.9Q224.93-8.05 226-6.55 227.08-5.05 228.53-5.05L228.53-5.05Z" opacity="1" transform="matrix(1,0,0,1,0,0)" fill="#ffdb99" class="undefined-text-0" data-fill-palette-color="primary" id="text-0"></path></svg></g></svg></g></svg></g></svg></g><g><svg viewBox="0 0 108.8188690364768 147.2159139013453" height="147.2159139013453" width="108.8188690364768"><g><svg xmlns="http://www.w3.org/2000/svg" xmlns:xlink="http://www.w3.org/1999/xlink" version="1.1" x="0" y="0" viewBox="16.399995803833008 4.899997711181641 66.60000610351562 90.10000610351562" enable-background="new 0 0 100 100" xml:space="preserve" height="147.2159139013453" width="108.8188690364768" class="icon-icon-0" data-fill-palette-color="accent" id="icon-0"><path d="M31.8 61.9V28.5h2.5c1.2 0 1.7-0.5 1.7-1.7 0-1.2-1-2.2-2.2-2.2h-2v-2h4.5c1.2 0 1.7-0.5 1.7-1.7 0-1.2-1-2.2-2.2-2.2h-3.9v-2h4.5c1.2 0 1.7-0.5 1.7-1.7s-1-2.2-2.2-2.2h-3.9v-2h2.7c1.2 0 1.7-0.5 1.7-1.7 0-1.2-1-2.2-2.2-2.2h-2.7c-0.7-1.2-1.9-2-3.4-2-1.5 0-2.7 0.8-3.4 2h-2.3c-1.2 0-2.2 1-2.2 2.2s0.8 1.7 2 1.7h2v2h-3.7c-1.2 0-2.2 1-2.2 2.2s0.8 1.7 2 1.7h3.9v2h-3.7c-1.2 0-2.2 1-2.2 2.2s0.8 1.7 2 1.7h3.9v2h-1.7c-1.2 0-2.2 1-2.2 2.2s0.8 1.7 2 1.7h2v33.3c-4.6 0.3-7.9 1.7-7.9 6.8V84c0 6.2 2.7 11 9.9 11h2c7.4 0 11.8-5 11.8-11V68.7C39.6 63.9 36.3 62.3 31.8 61.9zM31.8 84c0 1.6-1.7 3.2-3.4 3.2h-1.8c-1.7 0-2.7-1.6-2.7-3.2V68.7c0-1.5 0.9 0.9 2.7 0.9h1.3c0.1 0 0.2 0 0.3 0 0.1 0 0.2 0 0.3 0 1.7 0 3.4-2.5 3.4-0.9V84z" fill="#ff5db2" data-fill-palette-color="accent"></path><path d="M79.1 51V37.4c0-1.3 0-5 0-5.9 0-3-2.3-5.6-5.9-7.2v-6.4c0-2.4-1.2-4.6-3.3-5.9l-7.1-4.4c-2.3-1.5-5.4 0.2-5.4 3v13.7c-3.6 1.6-5.9 4.2-5.9 7.2 0 0.9 0 4.6 0 5.9V51c-2.5 1.3-3.9 3-3.9 4.9 0 0.1 0 0.2 0 0.3 0 0.2 0 0.4 0 0.7V82c0 6.2 7.4 13 17.7 13C75.4 95 83 88 83 82V55.9C83 54 81.5 52.3 79.1 51zM65.3 40.2c2.1 0 4.1-0.3 5.9-0.9v17.3c0 1.6-1.7 3.2-3.4 3.2H62c-1.7 0-2.7-1.6-2.7-3.2V39.4C61.1 39.9 63.1 40.2 65.3 40.2zM75.1 82c0 1.6-4.7 5.1-9.9 5.1-5.7 0-9.9-3.6-9.9-5.1V65c2 1.6 4.7 2.6 7.9 2.6h2c3.7 0 7.2-1.3 9.7-3.3 0.1 0.1 0.1 0.2 0.1 0.4V82z" fill="#ff5db2" data-fill-palette-color="accent"></path></svg></g></svg></g></svg></g><defs></defs></svg><rect width="395.52" height="109.67798610956919" fill="none" stroke="none" visibility="hidden"></rect></g></svg></g></svg>
